M48
; DRILL file {KiCad 9.0.3} date 2025-08-02T20:14:02-0500
; FORMAT={-:-/ absolute / inch / decimal}
; #@! TF.CreationDate,2025-08-02T20:14:02-05:00
; #@! TF.GenerationSoftware,Kicad,Pcbnew,9.0.3
; #@! TF.FileFunction,NonPlated,1,2,NPTH
FMAT,2
INCH
; #@! TA.AperFunction,NonPlated,NPTH,ComponentDrill
T1C0.0256
; #@! TA.AperFunction,NonPlated,NPTH,ComponentDrill
T2C0.0669
; #@! TA.AperFunction,NonPlated,NPTH,ComponentDrill
T3C0.1260
; #@! TA.AperFunction,NonPlated,NPTH,ComponentDrill
T4C0.1570
; #@! TA.AperFunction,NonPlated,NPTH,ComponentDrill
T5C0.1575
%
G90
G05
T1
X1.5398Y-0.2205
X1.7673Y-0.2205
T2
X0.2568Y-0.4866
X0.3505Y-3.4866
X0.4443Y-1.2366
X0.538Y-1.9866
X0.6568Y-0.4866
X0.7255Y-2.7366
X0.7505Y-3.4866
X0.8443Y-1.2366
X0.938Y-1.9866
X1.0068Y-0.4866
X1.1255Y-2.7366
X1.288Y-3.4866
X1.3818Y-1.2366
X1.4068Y-0.4866
X1.5693Y-1.9866
X1.688Y-3.4866
X1.7568Y-0.4866
X1.7818Y-1.2366
X1.9443Y-2.7366
X1.9693Y-1.9866
X2.1318Y-1.2366
X2.1568Y-0.4866
X2.2255Y-3.4866
X2.3193Y-1.9866
X2.3443Y-2.7366
X2.5068Y-0.4866
X2.5318Y-1.2366
X2.6255Y-3.4866
X2.6943Y-2.7366
X2.7193Y-1.9866
X2.8818Y-1.2366
X2.9068Y-0.4866
X3.0693Y-1.9866
X3.0943Y-2.7366
X3.2568Y-0.4866
X3.2818Y-1.2366
X3.4443Y-2.7366
X3.4693Y-1.9866
X3.6318Y-1.2366
X3.6568Y-0.4866
X3.8193Y-1.9866
X3.8443Y-2.7366
X4.0068Y-0.4866
X4.0318Y-1.2366
X4.1943Y-2.7366
X4.2193Y-1.9866
X4.3818Y-1.2366
X4.4068Y-0.4866
X4.5693Y-1.9866
X4.5943Y-2.7366
X4.7568Y-0.4866
X4.7818Y-1.2366
X4.9443Y-2.7366
X4.9693Y-1.9866
X5.038Y-3.4866
X5.1318Y-1.2366
X5.1568Y-0.4866
X5.3193Y-1.9866
X5.3443Y-2.7366
X5.438Y-3.4866
X5.5068Y-0.4866
X5.5318Y-1.2366
X5.6943Y-2.7366
X5.7193Y-1.9866
X5.8818Y-1.2366
X5.9068Y-0.4866
X6.0693Y-1.9866
X6.0943Y-2.7366
X6.2568Y-0.4866
X6.2818Y-1.2366
X6.4443Y-2.7366
X6.4693Y-1.9866
X6.6318Y-1.2366
X6.6568Y-0.4866
X6.8193Y-1.9866
X6.8443Y-2.7366
X7.0068Y-0.4866
X7.0318Y-1.2366
X7.1943Y-2.7366
X7.2193Y-1.9866
X7.3818Y-1.2366
X7.4068Y-0.4866
X7.5693Y-1.9866
X7.5943Y-2.7366
X7.7568Y-0.4866
X7.7818Y-1.2366
X7.8505Y-3.4866
X7.9443Y-2.7366
X7.9693Y-1.9866
X8.1318Y-1.2366
X8.1568Y-0.4866
X8.2505Y-3.4866
X8.3193Y-1.9866
X8.3443Y-2.7366
X8.5068Y-0.4866
X8.5318Y-1.2366
X8.6943Y-2.7366
X8.7193Y-1.9866
X8.788Y-3.4866
X8.8818Y-1.2366
X8.9068Y-0.4866
X9.0693Y-1.9866
X9.0943Y-2.7366
X9.188Y-3.4866
X9.2568Y-0.4866
X9.2818Y-1.2366
X9.4693Y-1.9866
X9.6318Y-1.2366
X9.6568Y-0.4866
X9.7255Y-3.4866
X10.0318Y-1.2366
X10.1005Y-2.7366
X10.1255Y-3.4866
X10.288Y-1.9866
X10.3818Y-0.4866
X10.5005Y-2.7366
X10.5693Y-1.2366
X10.663Y-3.4866
X10.688Y-1.9866
X10.7818Y-0.4866
X10.9693Y-1.2366
X11.063Y-3.4866
T3
X0.1772Y-2.1654
X1.0827Y-1.4961
X5.9055Y-1.6535
X7.5591Y-3.4646
X11.1811Y-2.1654
T4
X0.4568Y-3.0616
X1.3943Y-3.0616
X3.2693Y-3.1616
X7.2068Y-3.1616
X9.8318Y-3.0616
X10.0193Y-1.6616
X10.113Y-0.8116
X10.7693Y-3.0616
X10.9568Y-1.6616
X11.0505Y-0.8116
T5
X0.4568Y-0.4866
X0.5505Y-3.4866
X0.6443Y-1.2366
X0.738Y-1.9866
X0.9255Y-2.7366
X1.2068Y-0.4866
X1.488Y-3.4866
X1.5818Y-1.2366
X1.7693Y-1.9866
X1.9568Y-0.4866
X2.1443Y-2.7366
X2.3318Y-1.2366
X2.4255Y-3.4866
X2.5193Y-1.9866
X2.7068Y-0.4866
X2.8943Y-2.7366
X3.0818Y-1.2366
X3.2693Y-1.9866
X3.4568Y-0.4866
X3.6443Y-2.7366
X3.8318Y-1.2366
X4.0193Y-1.9866
X4.2068Y-0.4866
X4.3943Y-2.7366
X4.5818Y-1.2366
X4.7693Y-1.9866
X4.9568Y-0.4866
X5.1443Y-2.7366
X5.238Y-3.4866
X5.3318Y-1.2366
X5.5193Y-1.9866
X5.7068Y-0.4866
X5.8943Y-2.7366
X6.0818Y-1.2366
X6.2693Y-1.9866
X6.4568Y-0.4866
X6.6443Y-2.7366
X6.8318Y-1.2366
X7.0193Y-1.9866
X7.2068Y-0.4866
X7.3943Y-2.7366
X7.5818Y-1.2366
X7.7693Y-1.9866
X7.9568Y-0.4866
X8.0505Y-3.4866
X8.1443Y-2.7366
X8.3318Y-1.2366
X8.5193Y-1.9866
X8.7068Y-0.4866
X8.8943Y-2.7366
X8.988Y-3.4866
X9.0818Y-1.2366
X9.2693Y-1.9866
X9.4568Y-0.4866
X9.8318Y-1.2366
X9.9255Y-3.4866
X10.3005Y-2.7366
X10.488Y-1.9866
X10.5818Y-0.4866
X10.7693Y-1.2366
X10.863Y-3.4866
M30
