M48
; DRILL file {KiCad 9.0.3} date 2025-08-02T20:14:02-0500
; FORMAT={-:-/ absolute / inch / decimal}
; #@! TF.CreationDate,2025-08-02T20:14:02-05:00
; #@! TF.GenerationSoftware,Kicad,Pcbnew,9.0.3
; #@! TF.FileFunction,Plated,1,2,PTH
FMAT,2
INCH
; #@! TA.AperFunction,Plated,PTH,ViaDrill
T1C0.0157
; #@! TA.AperFunction,Plated,PTH,ComponentDrill
T2C0.0236
; #@! TA.AperFunction,Plated,PTH,ComponentDrill
T3C0.0394
; #@! TA.AperFunction,Plated,PTH,ComponentDrill
T4C0.1181
; #@! TA.AperFunction,Plated,PTH,ComponentDrill
T5C0.1200
%
G90
G05
T1
X1.2205Y-1.6732
X1.3976Y-0.2559
X1.4173Y-0.3346
X1.5764Y-0.3365
X1.7224Y-0.3445
X1.811Y-1.0722
X1.9094Y-0.2264
X1.9783Y-0.2756
X2.0079Y-1.8222
X2.1063Y-1.0728
X2.1949Y-2.5
X2.2835Y-1.8209
X2.372Y-2.5722
X2.6378Y-2.5689
X2.874Y-3.5827
X3.002Y-3.5728
X3.0315Y-3.75
X3.061Y-3.4843
X3.0807Y-3.3661
X3.0807Y-3.5679
X3.1299Y-2.5722
X3.1496Y-3.2087
X3.3071Y-3.5827
X3.3858Y-3.7008
X3.4154Y-2.5689
X3.5433Y-3.5827
X3.5433Y-3.7697
X3.563Y-3.248
X3.622Y-3.6713
X3.6516Y-3.4646
X3.6811Y-3.4154
X3.6909Y-3.5466
X3.7205Y-3.1299
X3.75Y-3.8189
X3.7598Y-3.6417
X3.7992Y-3.7894
X3.8287Y-3.5039
X3.8681Y-3.7402
X3.9075Y-3.7894
X3.9567Y-3.5728
X3.9715Y-3.3612
X3.9764Y-3.4252
X4.0138Y-3.6909
X4.0157Y-3.1496
X4.0157Y-3.7697
X4.0551Y-3.2776
X4.0551Y-3.4055
X4.0551Y-3.5728
X4.065Y-3.4843
X4.1142Y-3.4449
X4.1437Y-3.5039
X4.1507Y-3.196
X4.1929Y-3.7697
X4.2126Y-3.4744
X4.252Y-3.0709
X4.3066Y-3.5773
X4.3504Y-3.5433
X4.4193Y-3.6319
X4.4685Y-3.0512
X4.5276Y-3.1102
X4.5374Y-3.6614
X4.5472Y-3.3563
X4.7244Y-3.4744
X4.9311Y-3.8189
X9.1693Y-3.061
X10.9027Y-3.2382
T3
X4.6228Y-3.6811
X4.6228Y-3.7811
X4.7228Y-3.6811
X4.7228Y-3.7811
X4.8228Y-3.6811
X4.8228Y-3.7811
T4
X0.3568Y-0.6866
X0.4505Y-3.6866
X0.5443Y-1.4366
X0.6068Y-0.5866
X0.638Y-2.1866
X0.7005Y-3.5866
X0.7943Y-1.3366
X0.8255Y-2.9366
X0.888Y-2.0866
X1.0755Y-2.8366
X1.1068Y-0.6866
X1.3568Y-0.5866
X1.388Y-3.6866
X1.4818Y-1.4366
X1.638Y-3.5866
X1.6693Y-2.1866
X1.7318Y-1.3366
X1.8568Y-0.6866
X1.9193Y-2.0866
X2.0443Y-2.9366
X2.1068Y-0.5866
X2.2318Y-1.4366
X2.2943Y-2.8366
X2.3255Y-3.6866
X2.4193Y-2.1866
X2.4818Y-1.3366
X2.5755Y-3.5866
X2.6068Y-0.6866
X2.6693Y-2.0866
X2.7943Y-2.9366
X2.8568Y-0.5866
X2.9818Y-1.4366
X3.0443Y-2.8366
X3.1693Y-2.1866
X3.2318Y-1.3366
X3.3568Y-0.6866
X3.4193Y-2.0866
X3.5443Y-2.9366
X3.6068Y-0.5866
X3.7318Y-1.4366
X3.7943Y-2.8366
X3.9193Y-2.1866
X3.9818Y-1.3366
X4.1068Y-0.6866
X4.1693Y-2.0866
X4.2943Y-2.9366
X4.3568Y-0.5866
X4.4818Y-1.4366
X4.5443Y-2.8366
X4.6693Y-2.1866
X4.7318Y-1.3366
X4.8568Y-0.6866
X4.9193Y-2.0866
X5.0443Y-2.9366
X5.1068Y-0.5866
X5.138Y-3.6866
X5.2318Y-1.4366
X5.2943Y-2.8366
X5.388Y-3.5866
X5.4193Y-2.1866
X5.4818Y-1.3366
X5.6068Y-0.6866
X5.6693Y-2.0866
X5.7943Y-2.9366
X5.8568Y-0.5866
X5.9818Y-1.4366
X6.0443Y-2.8366
X6.1693Y-2.1866
X6.2318Y-1.3366
X6.3568Y-0.6866
X6.4193Y-2.0866
X6.5443Y-2.9366
X6.6068Y-0.5866
X6.7318Y-1.4366
X6.7943Y-2.8366
X6.9193Y-2.1866
X6.9818Y-1.3366
X7.1068Y-0.6866
X7.1693Y-2.0866
X7.2943Y-2.9366
X7.3568Y-0.5866
X7.4818Y-1.4366
X7.5443Y-2.8366
X7.6693Y-2.1866
X7.7318Y-1.3366
X7.8568Y-0.6866
X7.9193Y-2.0866
X7.9505Y-3.6866
X8.0443Y-2.9366
X8.1068Y-0.5866
X8.2005Y-3.5866
X8.2318Y-1.4366
X8.2943Y-2.8366
X8.4193Y-2.1866
X8.4818Y-1.3366
X8.6068Y-0.6866
X8.6693Y-2.0866
X8.7943Y-2.9366
X8.8568Y-0.5866
X8.888Y-3.6866
X8.9818Y-1.4366
X9.0443Y-2.8366
X9.138Y-3.5866
X9.1693Y-2.1866
X9.2318Y-1.3366
X9.3568Y-0.6866
X9.4193Y-2.0866
X9.6068Y-0.5866
X9.7318Y-1.4366
X9.8255Y-3.6866
X9.9818Y-1.3366
X10.0755Y-3.5866
X10.2005Y-2.9366
X10.388Y-2.1866
X10.4505Y-2.8366
X10.4818Y-0.6866
X10.638Y-2.0866
X10.6693Y-1.4366
X10.7318Y-0.5866
X10.763Y-3.6866
X10.9193Y-1.3366
X11.013Y-3.5866
T5
X0.4568Y-2.4616
X1.3943Y-2.4616
X3.2693Y-3.7616
X7.2068Y-3.7616
X9.8318Y-2.4616
X10.0193Y-2.2616
X10.113Y-0.2116
X10.7693Y-2.4616
X10.9568Y-2.2616
X11.0505Y-0.2116
T2
G00X1.4835Y-0.065
M15
G01X1.4835Y-0.0886
M16
G05
G00X1.4835Y-0.2197
M15
G01X1.4835Y-0.263
M16
G05
G00X1.8236Y-0.065
M15
G01X1.8236Y-0.0886
M16
G05
G00X1.8236Y-0.2197
M15
G01X1.8236Y-0.263
M16
G05
M30
