%TF.GenerationSoftware,KiCad,Pcbnew,9.0.3*%
%TF.CreationDate,2025-08-02T20:14:01-05:00*%
%TF.ProjectId,my-keyboard,6d792d6b-6579-4626-9f61-72642e6b6963,1.0*%
%TF.SameCoordinates,Original*%
%TF.FileFunction,Legend,Top*%
%TF.FilePolarity,Positive*%
%FSLAX46Y46*%
G04 Gerber Fmt 4.6, Leading zero omitted, Abs format (unit mm)*
G04 Created by KiCad (PCBNEW 9.0.3) date 2025-08-02 20:14:01*
%MOMM*%
%LPD*%
G01*
G04 APERTURE LIST*
%ADD10C,0.140000*%
%ADD11C,1.700000*%
%ADD12C,4.000000*%
%ADD13C,3.987800*%
%ADD14R,1.700000X1.700000*%
%ADD15O,1.700000X1.700000*%
%ADD16C,3.200000*%
%ADD17C,0.650000*%
%ADD18O,1.000000X1.600000*%
%ADD19O,1.000000X2.100000*%
G04 APERTURE END LIST*
D10*
%TO.C,KEY4*%
X61252500Y-4860000D02*
X61252500Y-6360000D01*
X61252500Y-4860000D02*
X62752500Y-4860000D01*
X61252500Y-19860000D02*
X61252500Y-18360000D01*
X61252500Y-19860000D02*
X62752500Y-19860000D01*
X76252500Y-4860000D02*
X74752500Y-4860000D01*
X76252500Y-4860000D02*
X76252500Y-6360000D01*
X76252500Y-19860000D02*
X74752500Y-19860000D01*
X76252500Y-19860000D02*
X76252500Y-18360000D01*
%TO.C,KEY16*%
X32677500Y-23910000D02*
X32677500Y-25410000D01*
X32677500Y-23910000D02*
X34177500Y-23910000D01*
X32677500Y-38910000D02*
X32677500Y-37410000D01*
X32677500Y-38910000D02*
X34177500Y-38910000D01*
X47677500Y-23910000D02*
X46177500Y-23910000D01*
X47677500Y-23910000D02*
X47677500Y-25410000D01*
X47677500Y-38910000D02*
X46177500Y-38910000D01*
X47677500Y-38910000D02*
X47677500Y-37410000D01*
%TO.C,KEY47*%
X123165000Y-62010000D02*
X123165000Y-63510000D01*
X123165000Y-62010000D02*
X124665000Y-62010000D01*
X123165000Y-77010000D02*
X123165000Y-75510000D01*
X123165000Y-77010000D02*
X124665000Y-77010000D01*
X138165000Y-62010000D02*
X136665000Y-62010000D01*
X138165000Y-62010000D02*
X138165000Y-63510000D01*
X138165000Y-77010000D02*
X136665000Y-77010000D01*
X138165000Y-77010000D02*
X138165000Y-75510000D01*
%TO.C,KEY45*%
X85065000Y-62010000D02*
X85065000Y-63510000D01*
X85065000Y-62010000D02*
X86565000Y-62010000D01*
X85065000Y-77010000D02*
X85065000Y-75510000D01*
X85065000Y-77010000D02*
X86565000Y-77010000D01*
X100065000Y-62010000D02*
X98565000Y-62010000D01*
X100065000Y-62010000D02*
X100065000Y-63510000D01*
X100065000Y-77010000D02*
X98565000Y-77010000D01*
X100065000Y-77010000D02*
X100065000Y-75510000D01*
%TO.C,KEY48*%
X142215000Y-62010000D02*
X142215000Y-63510000D01*
X142215000Y-62010000D02*
X143715000Y-62010000D01*
X142215000Y-77010000D02*
X142215000Y-75510000D01*
X142215000Y-77010000D02*
X143715000Y-77010000D01*
X157215000Y-62010000D02*
X155715000Y-62010000D01*
X157215000Y-62010000D02*
X157215000Y-63510000D01*
X157215000Y-77010000D02*
X155715000Y-77010000D01*
X157215000Y-77010000D02*
X157215000Y-75510000D01*
%TO.C,KEY59*%
X220796250Y-81060000D02*
X220796250Y-82560000D01*
X220796250Y-81060000D02*
X222296250Y-81060000D01*
X220796250Y-96060000D02*
X220796250Y-94560000D01*
X220796250Y-96060000D02*
X222296250Y-96060000D01*
X235796250Y-81060000D02*
X234296250Y-81060000D01*
X235796250Y-81060000D02*
X235796250Y-82560000D01*
X235796250Y-96060000D02*
X234296250Y-96060000D01*
X235796250Y-96060000D02*
X235796250Y-94560000D01*
%TO.C,KEY21*%
X127927500Y-23910000D02*
X127927500Y-25410000D01*
X127927500Y-23910000D02*
X129427500Y-23910000D01*
X127927500Y-38910000D02*
X127927500Y-37410000D01*
X127927500Y-38910000D02*
X129427500Y-38910000D01*
X142927500Y-23910000D02*
X141427500Y-23910000D01*
X142927500Y-23910000D02*
X142927500Y-25410000D01*
X142927500Y-38910000D02*
X141427500Y-38910000D01*
X142927500Y-38910000D02*
X142927500Y-37410000D01*
%TO.C,KEY58*%
X196983750Y-81060000D02*
X196983750Y-82560000D01*
X196983750Y-81060000D02*
X198483750Y-81060000D01*
X196983750Y-96060000D02*
X196983750Y-94560000D01*
X196983750Y-96060000D02*
X198483750Y-96060000D01*
X211983750Y-81060000D02*
X210483750Y-81060000D01*
X211983750Y-81060000D02*
X211983750Y-82560000D01*
X211983750Y-96060000D02*
X210483750Y-96060000D01*
X211983750Y-96060000D02*
X211983750Y-94560000D01*
%TO.C,KEY32*%
X75540000Y-42960000D02*
X75540000Y-44460000D01*
X75540000Y-42960000D02*
X77040000Y-42960000D01*
X75540000Y-57960000D02*
X75540000Y-56460000D01*
X75540000Y-57960000D02*
X77040000Y-57960000D01*
X90540000Y-42960000D02*
X89040000Y-42960000D01*
X90540000Y-42960000D02*
X90540000Y-44460000D01*
X90540000Y-57960000D02*
X89040000Y-57960000D01*
X90540000Y-57960000D02*
X90540000Y-56460000D01*
%TO.C,KEY6*%
X99352500Y-4860000D02*
X99352500Y-6360000D01*
X99352500Y-4860000D02*
X100852500Y-4860000D01*
X99352500Y-19860000D02*
X99352500Y-18360000D01*
X99352500Y-19860000D02*
X100852500Y-19860000D01*
X114352500Y-4860000D02*
X112852500Y-4860000D01*
X114352500Y-4860000D02*
X114352500Y-6360000D01*
X114352500Y-19860000D02*
X112852500Y-19860000D01*
X114352500Y-19860000D02*
X114352500Y-18360000D01*
%TO.C,KEY53*%
X254133750Y-62010000D02*
X254133750Y-63510000D01*
X254133750Y-62010000D02*
X255633750Y-62010000D01*
X254133750Y-77010000D02*
X254133750Y-75510000D01*
X254133750Y-77010000D02*
X255633750Y-77010000D01*
X269133750Y-62010000D02*
X267633750Y-62010000D01*
X269133750Y-62010000D02*
X269133750Y-63510000D01*
X269133750Y-77010000D02*
X267633750Y-77010000D01*
X269133750Y-77010000D02*
X269133750Y-75510000D01*
%TO.C,KEY26*%
X223177500Y-23910000D02*
X223177500Y-25410000D01*
X223177500Y-23910000D02*
X224677500Y-23910000D01*
X223177500Y-38910000D02*
X223177500Y-37410000D01*
X223177500Y-38910000D02*
X224677500Y-38910000D01*
X238177500Y-23910000D02*
X236677500Y-23910000D01*
X238177500Y-23910000D02*
X238177500Y-25410000D01*
X238177500Y-38910000D02*
X236677500Y-38910000D01*
X238177500Y-38910000D02*
X238177500Y-37410000D01*
%TO.C,KEY15*%
X8865000Y-23910000D02*
X8865000Y-25410000D01*
X8865000Y-23910000D02*
X10365000Y-23910000D01*
X8865000Y-38910000D02*
X8865000Y-37410000D01*
X8865000Y-38910000D02*
X10365000Y-38910000D01*
X23865000Y-23910000D02*
X22365000Y-23910000D01*
X23865000Y-23910000D02*
X23865000Y-25410000D01*
X23865000Y-38910000D02*
X22365000Y-38910000D01*
X23865000Y-38910000D02*
X23865000Y-37410000D01*
%TO.C,KEY55*%
X30296250Y-81060000D02*
X30296250Y-82560000D01*
X30296250Y-81060000D02*
X31796250Y-81060000D01*
X30296250Y-96060000D02*
X30296250Y-94560000D01*
X30296250Y-96060000D02*
X31796250Y-96060000D01*
X45296250Y-81060000D02*
X43796250Y-81060000D01*
X45296250Y-81060000D02*
X45296250Y-82560000D01*
X45296250Y-96060000D02*
X43796250Y-96060000D01*
X45296250Y-96060000D02*
X45296250Y-94560000D01*
%TO.C,KEY29*%
X11246250Y-42960000D02*
X11246250Y-44460000D01*
X11246250Y-42960000D02*
X12746250Y-42960000D01*
X11246250Y-57960000D02*
X11246250Y-56460000D01*
X11246250Y-57960000D02*
X12746250Y-57960000D01*
X26246250Y-42960000D02*
X24746250Y-42960000D01*
X26246250Y-42960000D02*
X26246250Y-44460000D01*
X26246250Y-57960000D02*
X24746250Y-57960000D01*
X26246250Y-57960000D02*
X26246250Y-56460000D01*
%TO.C,KEY46*%
X104115000Y-62010000D02*
X104115000Y-63510000D01*
X104115000Y-62010000D02*
X105615000Y-62010000D01*
X104115000Y-77010000D02*
X104115000Y-75510000D01*
X104115000Y-77010000D02*
X105615000Y-77010000D01*
X119115000Y-62010000D02*
X117615000Y-62010000D01*
X119115000Y-62010000D02*
X119115000Y-63510000D01*
X119115000Y-77010000D02*
X117615000Y-77010000D01*
X119115000Y-77010000D02*
X119115000Y-75510000D01*
%TO.C,KEY35*%
X132690000Y-42960000D02*
X132690000Y-44460000D01*
X132690000Y-42960000D02*
X134190000Y-42960000D01*
X132690000Y-57960000D02*
X132690000Y-56460000D01*
X132690000Y-57960000D02*
X134190000Y-57960000D01*
X147690000Y-42960000D02*
X146190000Y-42960000D01*
X147690000Y-42960000D02*
X147690000Y-44460000D01*
X147690000Y-57960000D02*
X146190000Y-57960000D01*
X147690000Y-57960000D02*
X147690000Y-56460000D01*
%TO.C,KEY31*%
X56490000Y-42960000D02*
X56490000Y-44460000D01*
X56490000Y-42960000D02*
X57990000Y-42960000D01*
X56490000Y-57960000D02*
X56490000Y-56460000D01*
X56490000Y-57960000D02*
X57990000Y-57960000D01*
X71490000Y-42960000D02*
X69990000Y-42960000D01*
X71490000Y-42960000D02*
X71490000Y-44460000D01*
X71490000Y-57960000D02*
X69990000Y-57960000D01*
X71490000Y-57960000D02*
X71490000Y-56460000D01*
%TO.C,KEY19*%
X89827500Y-23910000D02*
X89827500Y-25410000D01*
X89827500Y-23910000D02*
X91327500Y-23910000D01*
X89827500Y-38910000D02*
X89827500Y-37410000D01*
X89827500Y-38910000D02*
X91327500Y-38910000D01*
X104827500Y-23910000D02*
X103327500Y-23910000D01*
X104827500Y-23910000D02*
X104827500Y-25410000D01*
X104827500Y-38910000D02*
X103327500Y-38910000D01*
X104827500Y-38910000D02*
X104827500Y-37410000D01*
%TO.C,KEY8*%
X137452500Y-4860000D02*
X137452500Y-6360000D01*
X137452500Y-4860000D02*
X138952500Y-4860000D01*
X137452500Y-19860000D02*
X137452500Y-18360000D01*
X137452500Y-19860000D02*
X138952500Y-19860000D01*
X152452500Y-4860000D02*
X150952500Y-4860000D01*
X152452500Y-4860000D02*
X152452500Y-6360000D01*
X152452500Y-19860000D02*
X150952500Y-19860000D01*
X152452500Y-19860000D02*
X152452500Y-18360000D01*
%TO.C,KEY37*%
X170790000Y-42960000D02*
X170790000Y-44460000D01*
X170790000Y-42960000D02*
X172290000Y-42960000D01*
X170790000Y-57960000D02*
X170790000Y-56460000D01*
X170790000Y-57960000D02*
X172290000Y-57960000D01*
X185790000Y-42960000D02*
X184290000Y-42960000D01*
X185790000Y-42960000D02*
X185790000Y-44460000D01*
X185790000Y-57960000D02*
X184290000Y-57960000D01*
X185790000Y-57960000D02*
X185790000Y-56460000D01*
%TO.C,KEY54*%
X6483750Y-81060000D02*
X6483750Y-82560000D01*
X6483750Y-81060000D02*
X7983750Y-81060000D01*
X6483750Y-96060000D02*
X6483750Y-94560000D01*
X6483750Y-96060000D02*
X7983750Y-96060000D01*
X21483750Y-81060000D02*
X19983750Y-81060000D01*
X21483750Y-81060000D02*
X21483750Y-82560000D01*
X21483750Y-96060000D02*
X19983750Y-96060000D01*
X21483750Y-96060000D02*
X21483750Y-94560000D01*
%TO.C,KEY23*%
X166027500Y-23910000D02*
X166027500Y-25410000D01*
X166027500Y-23910000D02*
X167527500Y-23910000D01*
X166027500Y-38910000D02*
X166027500Y-37410000D01*
X166027500Y-38910000D02*
X167527500Y-38910000D01*
X181027500Y-23910000D02*
X179527500Y-23910000D01*
X181027500Y-23910000D02*
X181027500Y-25410000D01*
X181027500Y-38910000D02*
X179527500Y-38910000D01*
X181027500Y-38910000D02*
X181027500Y-37410000D01*
%TO.C,KEY17*%
X51727500Y-23910000D02*
X51727500Y-25410000D01*
X51727500Y-23910000D02*
X53227500Y-23910000D01*
X51727500Y-38910000D02*
X51727500Y-37410000D01*
X51727500Y-38910000D02*
X53227500Y-38910000D01*
X66727500Y-23910000D02*
X65227500Y-23910000D01*
X66727500Y-23910000D02*
X66727500Y-25410000D01*
X66727500Y-38910000D02*
X65227500Y-38910000D01*
X66727500Y-38910000D02*
X66727500Y-37410000D01*
%TO.C,KEY7*%
X118402500Y-4860000D02*
X118402500Y-6360000D01*
X118402500Y-4860000D02*
X119902500Y-4860000D01*
X118402500Y-19860000D02*
X118402500Y-18360000D01*
X118402500Y-19860000D02*
X119902500Y-19860000D01*
X133402500Y-4860000D02*
X131902500Y-4860000D01*
X133402500Y-4860000D02*
X133402500Y-6360000D01*
X133402500Y-19860000D02*
X131902500Y-19860000D01*
X133402500Y-19860000D02*
X133402500Y-18360000D01*
%TO.C,KEY11*%
X194602500Y-4860000D02*
X194602500Y-6360000D01*
X194602500Y-4860000D02*
X196102500Y-4860000D01*
X194602500Y-19860000D02*
X194602500Y-18360000D01*
X194602500Y-19860000D02*
X196102500Y-19860000D01*
X209602500Y-4860000D02*
X208102500Y-4860000D01*
X209602500Y-4860000D02*
X209602500Y-6360000D01*
X209602500Y-19860000D02*
X208102500Y-19860000D01*
X209602500Y-19860000D02*
X209602500Y-18360000D01*
%TO.C,KEY60*%
X244608750Y-81060000D02*
X244608750Y-82560000D01*
X244608750Y-81060000D02*
X246108750Y-81060000D01*
X244608750Y-96060000D02*
X244608750Y-94560000D01*
X244608750Y-96060000D02*
X246108750Y-96060000D01*
X259608750Y-81060000D02*
X258108750Y-81060000D01*
X259608750Y-81060000D02*
X259608750Y-82560000D01*
X259608750Y-96060000D02*
X258108750Y-96060000D01*
X259608750Y-96060000D02*
X259608750Y-94560000D01*
%TO.C,KEY51*%
X199365000Y-62010000D02*
X199365000Y-63510000D01*
X199365000Y-62010000D02*
X200865000Y-62010000D01*
X199365000Y-77010000D02*
X199365000Y-75510000D01*
X199365000Y-77010000D02*
X200865000Y-77010000D01*
X214365000Y-62010000D02*
X212865000Y-62010000D01*
X214365000Y-62010000D02*
X214365000Y-63510000D01*
X214365000Y-77010000D02*
X212865000Y-77010000D01*
X214365000Y-77010000D02*
X214365000Y-75510000D01*
%TO.C,KEY25*%
X204127500Y-23910000D02*
X204127500Y-25410000D01*
X204127500Y-23910000D02*
X205627500Y-23910000D01*
X204127500Y-38910000D02*
X204127500Y-37410000D01*
X204127500Y-38910000D02*
X205627500Y-38910000D01*
X219127500Y-23910000D02*
X217627500Y-23910000D01*
X219127500Y-23910000D02*
X219127500Y-25410000D01*
X219127500Y-38910000D02*
X217627500Y-38910000D01*
X219127500Y-38910000D02*
X219127500Y-37410000D01*
%TO.C,KEY9*%
X156502500Y-4860000D02*
X156502500Y-6360000D01*
X156502500Y-4860000D02*
X158002500Y-4860000D01*
X156502500Y-19860000D02*
X156502500Y-18360000D01*
X156502500Y-19860000D02*
X158002500Y-19860000D01*
X171502500Y-4860000D02*
X170002500Y-4860000D01*
X171502500Y-4860000D02*
X171502500Y-6360000D01*
X171502500Y-19860000D02*
X170002500Y-19860000D01*
X171502500Y-19860000D02*
X171502500Y-18360000D01*
%TO.C,KEY30*%
X37440000Y-42960000D02*
X37440000Y-44460000D01*
X37440000Y-42960000D02*
X38940000Y-42960000D01*
X37440000Y-57960000D02*
X37440000Y-56460000D01*
X37440000Y-57960000D02*
X38940000Y-57960000D01*
X52440000Y-42960000D02*
X50940000Y-42960000D01*
X52440000Y-42960000D02*
X52440000Y-44460000D01*
X52440000Y-57960000D02*
X50940000Y-57960000D01*
X52440000Y-57960000D02*
X52440000Y-56460000D01*
%TO.C,KEY42*%
X16008750Y-62010000D02*
X16008750Y-63510000D01*
X16008750Y-62010000D02*
X17508750Y-62010000D01*
X16008750Y-77010000D02*
X16008750Y-75510000D01*
X16008750Y-77010000D02*
X17508750Y-77010000D01*
X31008750Y-62010000D02*
X29508750Y-62010000D01*
X31008750Y-62010000D02*
X31008750Y-63510000D01*
X31008750Y-77010000D02*
X29508750Y-77010000D01*
X31008750Y-77010000D02*
X31008750Y-75510000D01*
%TO.C,KEY22*%
X146977500Y-23910000D02*
X146977500Y-25410000D01*
X146977500Y-23910000D02*
X148477500Y-23910000D01*
X146977500Y-38910000D02*
X146977500Y-37410000D01*
X146977500Y-38910000D02*
X148477500Y-38910000D01*
X161977500Y-23910000D02*
X160477500Y-23910000D01*
X161977500Y-23910000D02*
X161977500Y-25410000D01*
X161977500Y-38910000D02*
X160477500Y-38910000D01*
X161977500Y-38910000D02*
X161977500Y-37410000D01*
%TO.C,KEY27*%
X242227500Y-23910000D02*
X242227500Y-25410000D01*
X242227500Y-23910000D02*
X243727500Y-23910000D01*
X242227500Y-38910000D02*
X242227500Y-37410000D01*
X242227500Y-38910000D02*
X243727500Y-38910000D01*
X257227500Y-23910000D02*
X255727500Y-23910000D01*
X257227500Y-23910000D02*
X257227500Y-25410000D01*
X257227500Y-38910000D02*
X255727500Y-38910000D01*
X257227500Y-38910000D02*
X257227500Y-37410000D01*
%TO.C,KEY33*%
X94590000Y-42960000D02*
X94590000Y-44460000D01*
X94590000Y-42960000D02*
X96090000Y-42960000D01*
X94590000Y-57960000D02*
X94590000Y-56460000D01*
X94590000Y-57960000D02*
X96090000Y-57960000D01*
X109590000Y-42960000D02*
X108090000Y-42960000D01*
X109590000Y-42960000D02*
X109590000Y-44460000D01*
X109590000Y-57960000D02*
X108090000Y-57960000D01*
X109590000Y-57960000D02*
X109590000Y-56460000D01*
%TO.C,KEY14*%
X261277500Y-4860000D02*
X261277500Y-6360000D01*
X261277500Y-4860000D02*
X262777500Y-4860000D01*
X261277500Y-19860000D02*
X261277500Y-18360000D01*
X261277500Y-19860000D02*
X262777500Y-19860000D01*
X276277500Y-4860000D02*
X274777500Y-4860000D01*
X276277500Y-4860000D02*
X276277500Y-6360000D01*
X276277500Y-19860000D02*
X274777500Y-19860000D01*
X276277500Y-19860000D02*
X276277500Y-18360000D01*
%TO.C,KEY41*%
X258896250Y-42960000D02*
X258896250Y-44460000D01*
X258896250Y-42960000D02*
X260396250Y-42960000D01*
X258896250Y-57960000D02*
X258896250Y-56460000D01*
X258896250Y-57960000D02*
X260396250Y-57960000D01*
X273896250Y-42960000D02*
X272396250Y-42960000D01*
X273896250Y-42960000D02*
X273896250Y-44460000D01*
X273896250Y-57960000D02*
X272396250Y-57960000D01*
X273896250Y-57960000D02*
X273896250Y-56460000D01*
%TO.C,KEY28*%
X266040000Y-23910000D02*
X266040000Y-25410000D01*
X266040000Y-23910000D02*
X267540000Y-23910000D01*
X266040000Y-38910000D02*
X266040000Y-37410000D01*
X266040000Y-38910000D02*
X267540000Y-38910000D01*
X281040000Y-23910000D02*
X279540000Y-23910000D01*
X281040000Y-23910000D02*
X281040000Y-25410000D01*
X281040000Y-38910000D02*
X279540000Y-38910000D01*
X281040000Y-38910000D02*
X281040000Y-37410000D01*
%TO.C,KEY18*%
X70777500Y-23910000D02*
X70777500Y-25410000D01*
X70777500Y-23910000D02*
X72277500Y-23910000D01*
X70777500Y-38910000D02*
X70777500Y-37410000D01*
X70777500Y-38910000D02*
X72277500Y-38910000D01*
X85777500Y-23910000D02*
X84277500Y-23910000D01*
X85777500Y-23910000D02*
X85777500Y-25410000D01*
X85777500Y-38910000D02*
X84277500Y-38910000D01*
X85777500Y-38910000D02*
X85777500Y-37410000D01*
%TO.C,KEY57*%
X125546250Y-81060000D02*
X125546250Y-82560000D01*
X125546250Y-81060000D02*
X127046250Y-81060000D01*
X125546250Y-96060000D02*
X125546250Y-94560000D01*
X125546250Y-96060000D02*
X127046250Y-96060000D01*
X140546250Y-81060000D02*
X139046250Y-81060000D01*
X140546250Y-81060000D02*
X140546250Y-82560000D01*
X140546250Y-96060000D02*
X139046250Y-96060000D01*
X140546250Y-96060000D02*
X140546250Y-94560000D01*
%TO.C,KEY61*%
X268421250Y-81060000D02*
X268421250Y-82560000D01*
X268421250Y-81060000D02*
X269921250Y-81060000D01*
X268421250Y-96060000D02*
X268421250Y-94560000D01*
X268421250Y-96060000D02*
X269921250Y-96060000D01*
X283421250Y-81060000D02*
X281921250Y-81060000D01*
X283421250Y-81060000D02*
X283421250Y-82560000D01*
X283421250Y-96060000D02*
X281921250Y-96060000D01*
X283421250Y-96060000D02*
X283421250Y-94560000D01*
%TO.C,KEY40*%
X227940000Y-42960000D02*
X227940000Y-44460000D01*
X227940000Y-42960000D02*
X229440000Y-42960000D01*
X227940000Y-57960000D02*
X227940000Y-56460000D01*
X227940000Y-57960000D02*
X229440000Y-57960000D01*
X242940000Y-42960000D02*
X241440000Y-42960000D01*
X242940000Y-42960000D02*
X242940000Y-44460000D01*
X242940000Y-57960000D02*
X241440000Y-57960000D01*
X242940000Y-57960000D02*
X242940000Y-56460000D01*
%TO.C,KEY5*%
X80302500Y-4860000D02*
X80302500Y-6360000D01*
X80302500Y-4860000D02*
X81802500Y-4860000D01*
X80302500Y-19860000D02*
X80302500Y-18360000D01*
X80302500Y-19860000D02*
X81802500Y-19860000D01*
X95302500Y-4860000D02*
X93802500Y-4860000D01*
X95302500Y-4860000D02*
X95302500Y-6360000D01*
X95302500Y-19860000D02*
X93802500Y-19860000D01*
X95302500Y-19860000D02*
X95302500Y-18360000D01*
%TO.C,KEY3*%
X42202500Y-4860000D02*
X42202500Y-6360000D01*
X42202500Y-4860000D02*
X43702500Y-4860000D01*
X42202500Y-19860000D02*
X42202500Y-18360000D01*
X42202500Y-19860000D02*
X43702500Y-19860000D01*
X57202500Y-4860000D02*
X55702500Y-4860000D01*
X57202500Y-4860000D02*
X57202500Y-6360000D01*
X57202500Y-19860000D02*
X55702500Y-19860000D01*
X57202500Y-19860000D02*
X57202500Y-18360000D01*
%TO.C,KEY52*%
X218415000Y-62010000D02*
X218415000Y-63510000D01*
X218415000Y-62010000D02*
X219915000Y-62010000D01*
X218415000Y-77010000D02*
X218415000Y-75510000D01*
X218415000Y-77010000D02*
X219915000Y-77010000D01*
X233415000Y-62010000D02*
X231915000Y-62010000D01*
X233415000Y-62010000D02*
X233415000Y-63510000D01*
X233415000Y-77010000D02*
X231915000Y-77010000D01*
X233415000Y-77010000D02*
X233415000Y-75510000D01*
%TO.C,KEY56*%
X54108750Y-81060000D02*
X54108750Y-82560000D01*
X54108750Y-81060000D02*
X55608750Y-81060000D01*
X54108750Y-96060000D02*
X54108750Y-94560000D01*
X54108750Y-96060000D02*
X55608750Y-96060000D01*
X69108750Y-81060000D02*
X67608750Y-81060000D01*
X69108750Y-81060000D02*
X69108750Y-82560000D01*
X69108750Y-96060000D02*
X67608750Y-96060000D01*
X69108750Y-96060000D02*
X69108750Y-94560000D01*
%TO.C,KEY20*%
X108877500Y-23910000D02*
X108877500Y-25410000D01*
X108877500Y-23910000D02*
X110377500Y-23910000D01*
X108877500Y-38910000D02*
X108877500Y-37410000D01*
X108877500Y-38910000D02*
X110377500Y-38910000D01*
X123877500Y-23910000D02*
X122377500Y-23910000D01*
X123877500Y-23910000D02*
X123877500Y-25410000D01*
X123877500Y-38910000D02*
X122377500Y-38910000D01*
X123877500Y-38910000D02*
X123877500Y-37410000D01*
%TO.C,KEY12*%
X213652500Y-4860000D02*
X213652500Y-6360000D01*
X213652500Y-4860000D02*
X215152500Y-4860000D01*
X213652500Y-19860000D02*
X213652500Y-18360000D01*
X213652500Y-19860000D02*
X215152500Y-19860000D01*
X228652500Y-4860000D02*
X227152500Y-4860000D01*
X228652500Y-4860000D02*
X228652500Y-6360000D01*
X228652500Y-19860000D02*
X227152500Y-19860000D01*
X228652500Y-19860000D02*
X228652500Y-18360000D01*
%TO.C,KEY39*%
X208890000Y-42960000D02*
X208890000Y-44460000D01*
X208890000Y-42960000D02*
X210390000Y-42960000D01*
X208890000Y-57960000D02*
X208890000Y-56460000D01*
X208890000Y-57960000D02*
X210390000Y-57960000D01*
X223890000Y-42960000D02*
X222390000Y-42960000D01*
X223890000Y-42960000D02*
X223890000Y-44460000D01*
X223890000Y-57960000D02*
X222390000Y-57960000D01*
X223890000Y-57960000D02*
X223890000Y-56460000D01*
%TO.C,KEY1*%
X4102500Y-4860000D02*
X4102500Y-6360000D01*
X4102500Y-4860000D02*
X5602500Y-4860000D01*
X4102500Y-19860000D02*
X4102500Y-18360000D01*
X4102500Y-19860000D02*
X5602500Y-19860000D01*
X19102500Y-4860000D02*
X17602500Y-4860000D01*
X19102500Y-4860000D02*
X19102500Y-6360000D01*
X19102500Y-19860000D02*
X17602500Y-19860000D01*
X19102500Y-19860000D02*
X19102500Y-18360000D01*
%TO.C,KEY24*%
X185077500Y-23910000D02*
X185077500Y-25410000D01*
X185077500Y-23910000D02*
X186577500Y-23910000D01*
X185077500Y-38910000D02*
X185077500Y-37410000D01*
X185077500Y-38910000D02*
X186577500Y-38910000D01*
X200077500Y-23910000D02*
X198577500Y-23910000D01*
X200077500Y-23910000D02*
X200077500Y-25410000D01*
X200077500Y-38910000D02*
X198577500Y-38910000D01*
X200077500Y-38910000D02*
X200077500Y-37410000D01*
%TO.C,KEY43*%
X46965000Y-62010000D02*
X46965000Y-63510000D01*
X46965000Y-62010000D02*
X48465000Y-62010000D01*
X46965000Y-77010000D02*
X46965000Y-75510000D01*
X46965000Y-77010000D02*
X48465000Y-77010000D01*
X61965000Y-62010000D02*
X60465000Y-62010000D01*
X61965000Y-62010000D02*
X61965000Y-63510000D01*
X61965000Y-77010000D02*
X60465000Y-77010000D01*
X61965000Y-77010000D02*
X61965000Y-75510000D01*
%TO.C,KEY50*%
X180315000Y-62010000D02*
X180315000Y-63510000D01*
X180315000Y-62010000D02*
X181815000Y-62010000D01*
X180315000Y-77010000D02*
X180315000Y-75510000D01*
X180315000Y-77010000D02*
X181815000Y-77010000D01*
X195315000Y-62010000D02*
X193815000Y-62010000D01*
X195315000Y-62010000D02*
X195315000Y-63510000D01*
X195315000Y-77010000D02*
X193815000Y-77010000D01*
X195315000Y-77010000D02*
X195315000Y-75510000D01*
%TO.C,KEY13*%
X232702500Y-4860000D02*
X232702500Y-6360000D01*
X232702500Y-4860000D02*
X234202500Y-4860000D01*
X232702500Y-19860000D02*
X232702500Y-18360000D01*
X232702500Y-19860000D02*
X234202500Y-19860000D01*
X247702500Y-4860000D02*
X246202500Y-4860000D01*
X247702500Y-4860000D02*
X247702500Y-6360000D01*
X247702500Y-19860000D02*
X246202500Y-19860000D01*
X247702500Y-19860000D02*
X247702500Y-18360000D01*
%TO.C,KEY10*%
X175552500Y-4860000D02*
X175552500Y-6360000D01*
X175552500Y-4860000D02*
X177052500Y-4860000D01*
X175552500Y-19860000D02*
X175552500Y-18360000D01*
X175552500Y-19860000D02*
X177052500Y-19860000D01*
X190552500Y-4860000D02*
X189052500Y-4860000D01*
X190552500Y-4860000D02*
X190552500Y-6360000D01*
X190552500Y-19860000D02*
X189052500Y-19860000D01*
X190552500Y-19860000D02*
X190552500Y-18360000D01*
%TO.C,KEY49*%
X161265000Y-62010000D02*
X161265000Y-63510000D01*
X161265000Y-62010000D02*
X162765000Y-62010000D01*
X161265000Y-77010000D02*
X161265000Y-75510000D01*
X161265000Y-77010000D02*
X162765000Y-77010000D01*
X176265000Y-62010000D02*
X174765000Y-62010000D01*
X176265000Y-62010000D02*
X176265000Y-63510000D01*
X176265000Y-77010000D02*
X174765000Y-77010000D01*
X176265000Y-77010000D02*
X176265000Y-75510000D01*
%TO.C,KEY2*%
X23152500Y-4860000D02*
X23152500Y-6360000D01*
X23152500Y-4860000D02*
X24652500Y-4860000D01*
X23152500Y-19860000D02*
X23152500Y-18360000D01*
X23152500Y-19860000D02*
X24652500Y-19860000D01*
X38152500Y-4860000D02*
X36652500Y-4860000D01*
X38152500Y-4860000D02*
X38152500Y-6360000D01*
X38152500Y-19860000D02*
X36652500Y-19860000D01*
X38152500Y-19860000D02*
X38152500Y-18360000D01*
%TO.C,KEY38*%
X189840000Y-42960000D02*
X189840000Y-44460000D01*
X189840000Y-42960000D02*
X191340000Y-42960000D01*
X189840000Y-57960000D02*
X189840000Y-56460000D01*
X189840000Y-57960000D02*
X191340000Y-57960000D01*
X204840000Y-42960000D02*
X203340000Y-42960000D01*
X204840000Y-42960000D02*
X204840000Y-44460000D01*
X204840000Y-57960000D02*
X203340000Y-57960000D01*
X204840000Y-57960000D02*
X204840000Y-56460000D01*
%TO.C,KEY44*%
X66015000Y-62010000D02*
X66015000Y-63510000D01*
X66015000Y-62010000D02*
X67515000Y-62010000D01*
X66015000Y-77010000D02*
X66015000Y-75510000D01*
X66015000Y-77010000D02*
X67515000Y-77010000D01*
X81015000Y-62010000D02*
X79515000Y-62010000D01*
X81015000Y-62010000D02*
X81015000Y-63510000D01*
X81015000Y-77010000D02*
X79515000Y-77010000D01*
X81015000Y-77010000D02*
X81015000Y-75510000D01*
%TO.C,KEY34*%
X113640000Y-42960000D02*
X113640000Y-44460000D01*
X113640000Y-42960000D02*
X115140000Y-42960000D01*
X113640000Y-57960000D02*
X113640000Y-56460000D01*
X113640000Y-57960000D02*
X115140000Y-57960000D01*
X128640000Y-42960000D02*
X127140000Y-42960000D01*
X128640000Y-42960000D02*
X128640000Y-44460000D01*
X128640000Y-57960000D02*
X127140000Y-57960000D01*
X128640000Y-57960000D02*
X128640000Y-56460000D01*
%TO.C,KEY36*%
X151740000Y-42960000D02*
X151740000Y-44460000D01*
X151740000Y-42960000D02*
X153240000Y-42960000D01*
X151740000Y-57960000D02*
X151740000Y-56460000D01*
X151740000Y-57960000D02*
X153240000Y-57960000D01*
X166740000Y-42960000D02*
X165240000Y-42960000D01*
X166740000Y-42960000D02*
X166740000Y-44460000D01*
X166740000Y-57960000D02*
X165240000Y-57960000D01*
X166740000Y-57960000D02*
X166740000Y-56460000D01*
%TD*%
%LPC*%
D11*
%TO.C,KEY4*%
X63672500Y-12360000D03*
D12*
X68752500Y-12360000D03*
D11*
X73832500Y-12360000D03*
%TD*%
D13*
%TO.C,S41*%
X278302500Y-42205000D03*
X254490000Y-42205000D03*
%TD*%
D11*
%TO.C,KEY16*%
X35097500Y-31410000D03*
D12*
X40177500Y-31410000D03*
D11*
X45257500Y-31410000D03*
%TD*%
%TO.C,KEY47*%
X125585000Y-69510000D03*
D12*
X130665000Y-69510000D03*
D11*
X135745000Y-69510000D03*
%TD*%
%TO.C,KEY45*%
X87485000Y-69510000D03*
D12*
X92565000Y-69510000D03*
D11*
X97645000Y-69510000D03*
%TD*%
%TO.C,KEY48*%
X144635000Y-69510000D03*
D12*
X149715000Y-69510000D03*
D11*
X154795000Y-69510000D03*
%TD*%
%TO.C,KEY59*%
X223216250Y-88560000D03*
D12*
X228296250Y-88560000D03*
D11*
X233376250Y-88560000D03*
%TD*%
%TO.C,KEY21*%
X130347500Y-31410000D03*
D12*
X135427500Y-31410000D03*
D11*
X140507500Y-31410000D03*
%TD*%
%TO.C,KEY58*%
X199403750Y-88560000D03*
D12*
X204483750Y-88560000D03*
D11*
X209563750Y-88560000D03*
%TD*%
%TO.C,KEY32*%
X77960000Y-50460000D03*
D12*
X83040000Y-50460000D03*
D11*
X88120000Y-50460000D03*
%TD*%
%TO.C,KEY6*%
X101772500Y-12360000D03*
D12*
X106852500Y-12360000D03*
D11*
X111932500Y-12360000D03*
%TD*%
%TO.C,KEY53*%
X256553750Y-69510000D03*
D12*
X261633750Y-69510000D03*
D11*
X266713750Y-69510000D03*
%TD*%
%TO.C,KEY26*%
X225597500Y-31410000D03*
D12*
X230677500Y-31410000D03*
D11*
X235757500Y-31410000D03*
%TD*%
%TO.C,KEY15*%
X11285000Y-31410000D03*
D12*
X16365000Y-31410000D03*
D11*
X21445000Y-31410000D03*
%TD*%
%TO.C,KEY55*%
X32716250Y-88560000D03*
D12*
X37796250Y-88560000D03*
D11*
X42876250Y-88560000D03*
%TD*%
%TO.C,KEY29*%
X13666250Y-50460000D03*
D12*
X18746250Y-50460000D03*
D11*
X23826250Y-50460000D03*
%TD*%
%TO.C,KEY46*%
X106535000Y-69510000D03*
D12*
X111615000Y-69510000D03*
D11*
X116695000Y-69510000D03*
%TD*%
%TO.C,KEY35*%
X135110000Y-50460000D03*
D12*
X140190000Y-50460000D03*
D11*
X145270000Y-50460000D03*
%TD*%
%TO.C,KEY31*%
X58910000Y-50460000D03*
D12*
X63990000Y-50460000D03*
D11*
X69070000Y-50460000D03*
%TD*%
%TO.C,KEY19*%
X92247500Y-31410000D03*
D12*
X97327500Y-31410000D03*
D11*
X102407500Y-31410000D03*
%TD*%
%TO.C,KEY8*%
X139872500Y-12360000D03*
D12*
X144952500Y-12360000D03*
D11*
X150032500Y-12360000D03*
%TD*%
%TO.C,KEY37*%
X173210000Y-50460000D03*
D12*
X178290000Y-50460000D03*
D11*
X183370000Y-50460000D03*
%TD*%
D13*
%TO.C,S57*%
X183052500Y-80305000D03*
X83040000Y-80305000D03*
%TD*%
D11*
%TO.C,KEY54*%
X8903750Y-88560000D03*
D12*
X13983750Y-88560000D03*
D11*
X19063750Y-88560000D03*
%TD*%
%TO.C,KEY23*%
X168447500Y-31410000D03*
D12*
X173527500Y-31410000D03*
D11*
X178607500Y-31410000D03*
%TD*%
%TO.C,KEY17*%
X54147500Y-31410000D03*
D12*
X59227500Y-31410000D03*
D11*
X64307500Y-31410000D03*
%TD*%
%TO.C,KEY7*%
X120822500Y-12360000D03*
D12*
X125902500Y-12360000D03*
D11*
X130982500Y-12360000D03*
%TD*%
%TO.C,KEY11*%
X197022500Y-12360000D03*
D12*
X202102500Y-12360000D03*
D11*
X207182500Y-12360000D03*
%TD*%
%TO.C,KEY60*%
X247028750Y-88560000D03*
D12*
X252108750Y-88560000D03*
D11*
X257188750Y-88560000D03*
%TD*%
%TO.C,KEY51*%
X201785000Y-69510000D03*
D12*
X206865000Y-69510000D03*
D11*
X211945000Y-69510000D03*
%TD*%
%TO.C,KEY25*%
X206547500Y-31410000D03*
D12*
X211627500Y-31410000D03*
D11*
X216707500Y-31410000D03*
%TD*%
%TO.C,KEY9*%
X158922500Y-12360000D03*
D12*
X164002500Y-12360000D03*
D11*
X169082500Y-12360000D03*
%TD*%
D13*
%TO.C,S42*%
X11602500Y-77765000D03*
X35415000Y-77765000D03*
%TD*%
D11*
%TO.C,KEY30*%
X39860000Y-50460000D03*
D12*
X44940000Y-50460000D03*
D11*
X50020000Y-50460000D03*
%TD*%
%TO.C,KEY42*%
X18428750Y-69510000D03*
D12*
X23508750Y-69510000D03*
D11*
X28588750Y-69510000D03*
%TD*%
%TO.C,KEY22*%
X149397500Y-31410000D03*
D12*
X154477500Y-31410000D03*
D11*
X159557500Y-31410000D03*
%TD*%
D13*
%TO.C,S53*%
X249727500Y-77765000D03*
X273540000Y-77765000D03*
%TD*%
D11*
%TO.C,KEY27*%
X244647500Y-31410000D03*
D12*
X249727500Y-31410000D03*
D11*
X254807500Y-31410000D03*
%TD*%
%TO.C,KEY33*%
X97010000Y-50460000D03*
D12*
X102090000Y-50460000D03*
D11*
X107170000Y-50460000D03*
%TD*%
%TO.C,KEY14*%
X263697500Y-12360000D03*
D12*
X268777500Y-12360000D03*
D11*
X273857500Y-12360000D03*
%TD*%
%TO.C,KEY41*%
X261316250Y-50460000D03*
D12*
X266396250Y-50460000D03*
D11*
X271476250Y-50460000D03*
%TD*%
%TO.C,KEY28*%
X268460000Y-31410000D03*
D12*
X273540000Y-31410000D03*
D11*
X278620000Y-31410000D03*
%TD*%
%TO.C,KEY18*%
X73197500Y-31410000D03*
D12*
X78277500Y-31410000D03*
D11*
X83357500Y-31410000D03*
%TD*%
%TO.C,KEY57*%
X127966250Y-88560000D03*
D12*
X133046250Y-88560000D03*
D11*
X138126250Y-88560000D03*
%TD*%
%TO.C,KEY61*%
X270841250Y-88560000D03*
D12*
X275921250Y-88560000D03*
D11*
X281001250Y-88560000D03*
%TD*%
%TO.C,KEY40*%
X230360000Y-50460000D03*
D12*
X235440000Y-50460000D03*
D11*
X240520000Y-50460000D03*
%TD*%
%TO.C,KEY5*%
X82722500Y-12360000D03*
D12*
X87802500Y-12360000D03*
D11*
X92882500Y-12360000D03*
%TD*%
D13*
%TO.C,S14*%
X256871250Y-20615000D03*
X280683750Y-20615000D03*
%TD*%
D11*
%TO.C,KEY3*%
X44622500Y-12360000D03*
D12*
X49702500Y-12360000D03*
D11*
X54782500Y-12360000D03*
%TD*%
%TO.C,KEY52*%
X220835000Y-69510000D03*
D12*
X225915000Y-69510000D03*
D11*
X230995000Y-69510000D03*
%TD*%
%TO.C,KEY56*%
X56528750Y-88560000D03*
D12*
X61608750Y-88560000D03*
D11*
X66688750Y-88560000D03*
%TD*%
%TO.C,KEY20*%
X111297500Y-31410000D03*
D12*
X116377500Y-31410000D03*
D11*
X121457500Y-31410000D03*
%TD*%
%TO.C,KEY12*%
X216072500Y-12360000D03*
D12*
X221152500Y-12360000D03*
D11*
X226232500Y-12360000D03*
%TD*%
%TO.C,KEY39*%
X211310000Y-50460000D03*
D12*
X216390000Y-50460000D03*
D11*
X221470000Y-50460000D03*
%TD*%
%TO.C,KEY1*%
X6522500Y-12360000D03*
D12*
X11602500Y-12360000D03*
D11*
X16682500Y-12360000D03*
%TD*%
%TO.C,KEY24*%
X187497500Y-31410000D03*
D12*
X192577500Y-31410000D03*
D11*
X197657500Y-31410000D03*
%TD*%
%TO.C,KEY43*%
X49385000Y-69510000D03*
D12*
X54465000Y-69510000D03*
D11*
X59545000Y-69510000D03*
%TD*%
%TO.C,KEY50*%
X182735000Y-69510000D03*
D12*
X187815000Y-69510000D03*
D11*
X192895000Y-69510000D03*
%TD*%
%TO.C,KEY13*%
X235122500Y-12360000D03*
D12*
X240202500Y-12360000D03*
D11*
X245282500Y-12360000D03*
%TD*%
%TO.C,KEY10*%
X177972500Y-12360000D03*
D12*
X183052500Y-12360000D03*
D11*
X188132500Y-12360000D03*
%TD*%
%TO.C,KEY49*%
X163685000Y-69510000D03*
D12*
X168765000Y-69510000D03*
D11*
X173845000Y-69510000D03*
%TD*%
%TO.C,KEY2*%
X25572500Y-12360000D03*
D12*
X30652500Y-12360000D03*
D11*
X35732500Y-12360000D03*
%TD*%
%TO.C,KEY38*%
X192260000Y-50460000D03*
D12*
X197340000Y-50460000D03*
D11*
X202420000Y-50460000D03*
%TD*%
%TO.C,KEY44*%
X68435000Y-69510000D03*
D12*
X73515000Y-69510000D03*
D11*
X78595000Y-69510000D03*
%TD*%
%TO.C,KEY34*%
X116060000Y-50460000D03*
D12*
X121140000Y-50460000D03*
D11*
X126220000Y-50460000D03*
%TD*%
%TO.C,KEY36*%
X154160000Y-50460000D03*
D12*
X159240000Y-50460000D03*
D11*
X164320000Y-50460000D03*
%TD*%
D14*
%TO.C,J2*%
X117420000Y-93500000D03*
D15*
X117420000Y-96040000D03*
X119960000Y-93500000D03*
X119960000Y-96040000D03*
X122500000Y-93500000D03*
X122500000Y-96040000D03*
%TD*%
D16*
%TO.C,H2*%
X27500000Y-38000000D03*
%TD*%
%TO.C,H1*%
X150000000Y-42000000D03*
%TD*%
%TO.C,H5*%
X192000000Y-88000000D03*
%TD*%
D17*
%TO.C,J1*%
X39110000Y-5600000D03*
X44890000Y-5600000D03*
D18*
X37680000Y-1950000D03*
D19*
X37680000Y-6130000D03*
D18*
X46320000Y-1950000D03*
D19*
X46320000Y-6130000D03*
%TD*%
D16*
%TO.C,H4*%
X4500000Y-55000000D03*
%TD*%
%TO.C,H3*%
X284000000Y-55000000D03*
%TD*%
%LPD*%
M02*
